<svg width="145" height="43" viewBox="0 0 145 43" fill="none" xmlns="http://www.w3.org/2000/svg">
<ellipse cx="20.0155" cy="20" rx="20.0155" ry="20" fill="#FFB700"/>
<g clip-path="url(#clip0_1794_2140)">
<path d="M20.0155 0C8.96436 0 0 8.95741 0 20C0 23.906 1.11687 27.5477 3.0567 30.6314C3.4094 28.1645 5.49618 26.2849 8.05323 26.2849C8.72923 26.2849 9.37584 26.4317 9.99306 26.6667C10.287 25.2276 11.5802 24.141 13.1085 24.141C13.9315 24.141 14.6663 24.464 15.2247 24.9633C16.1065 21.5272 19.2219 19.0015 22.9253 19.0015C27.1282 19.0015 30.5964 22.2614 30.8609 26.4023C31.2136 26.3436 31.5663 26.2849 31.919 26.2849C34.4761 26.2849 36.5922 28.1938 36.9155 30.6314C38.8554 27.5477 39.9722 23.906 39.9722 20C40.031 8.95741 31.0667 0 20.0155 0ZM32.0366 7.07783L21.1324 13.7445L18.0463 18.091C17.6054 18.7078 16.9882 19.1777 16.2534 19.3833L14.4605 19.9413L15.695 16.975L8.61167 20.2643C7.61236 20.8223 6.52488 21.2628 5.40801 21.5859C4.93775 21.7034 4.58505 21.2041 4.84957 20.8223L6.20158 18.9427L4.02662 18.0617L6.26036 16.652L8.81741 16.7988L13.7258 13.9501L3.70331 12.7166L6.67184 11.1894C7.08332 10.9545 7.55358 10.837 8.05323 10.8076L20.7503 9.98532L26.511 6.7254C27.8924 5.93245 29.5089 5.66813 31.0667 5.96182L31.8896 6.10866C32.3305 6.1674 32.4481 6.81351 32.0366 7.07783Z" fill="#006CE4"/>
</g>
<path d="M47.0572 35V9.64024H42.443V5.09985H57.7253V9.64024H53.1849V35H47.0572ZM64.8793 35.3691C63.3536 35.3691 62.0493 35.0984 60.9665 34.557C59.8837 33.991 59.0593 33.1789 58.4932 32.1207C57.9518 31.0625 57.6811 29.7459 57.6811 28.171V20.4929C57.6811 18.9179 57.9518 17.6013 58.4932 16.5431C59.0593 15.4849 59.8837 14.6851 60.9665 14.1437C62.0493 13.5777 63.3536 13.2947 64.8793 13.2947C66.4051 13.2947 67.7094 13.5777 68.7922 14.1437C69.875 14.6851 70.6994 15.4849 71.2654 16.5431C71.8314 17.6013 72.1144 18.9179 72.1144 20.4929V28.171C72.1144 29.7459 71.8314 31.0625 71.2654 32.1207C70.6994 33.1789 69.875 33.991 68.7922 34.557C67.7094 35.0984 66.4051 35.3691 64.8793 35.3691ZM64.9162 31.6039C65.3838 31.6039 65.7406 31.4809 65.9867 31.2348C66.2328 30.9641 66.3928 30.6073 66.4666 30.1643C66.5404 29.6967 66.5774 29.1676 66.5774 28.577V20.1238C66.5774 19.5085 66.5404 18.9794 66.4666 18.5365C66.3928 18.0935 66.2328 17.7367 65.9867 17.466C65.7406 17.1953 65.3838 17.0599 64.9162 17.0599C64.4487 17.0599 64.0918 17.1953 63.8457 17.466C63.5996 17.7367 63.4274 18.0935 63.3289 18.5365C63.2551 18.9794 63.2182 19.5085 63.2182 20.1238V28.577C63.2182 29.1676 63.2551 29.6967 63.3289 30.1643C63.4274 30.6073 63.5996 30.9641 63.8457 31.2348C64.0918 31.4809 64.4487 31.6039 64.9162 31.6039ZM77.6405 35.3691C76.7792 35.3691 76.0532 35.1477 75.4626 34.7047C74.8966 34.2617 74.4783 33.6711 74.2076 32.9328C73.9369 32.1946 73.8015 31.3825 73.8015 30.4965V13.6638H79.3755V29.6844C79.3755 30.275 79.4739 30.7303 79.6708 31.0502C79.8677 31.3455 80.2245 31.4932 80.7413 31.4932C81.0366 31.4932 81.3442 31.4194 81.6641 31.2717C82.0087 31.0994 82.3532 30.9026 82.6977 30.6811V13.6638H88.2717V35H82.6977V33.0067C81.9594 33.7203 81.1596 34.2986 80.2983 34.7416C79.4616 35.16 78.5757 35.3691 77.6405 35.3691ZM90.7167 35V13.6638H96.2906V17.0968C97.0043 15.8418 97.7057 14.9189 98.3947 14.3283C99.1084 13.7131 99.9451 13.4054 100.905 13.4054C101.077 13.4054 101.225 13.4177 101.348 13.4424C101.495 13.4424 101.631 13.467 101.754 13.5162V19.1271C101.483 19.004 101.176 18.9056 100.831 18.8318C100.487 18.7333 100.13 18.6841 99.7605 18.6841C99.0715 18.6841 98.4439 18.8687 97.8779 19.2378C97.3119 19.5823 96.7828 20.0868 96.2906 20.7513V35H90.7167ZM102.903 35V13.6638H108.477V35H102.903ZM102.866 10.157V5.98578H108.477V10.157H102.866ZM117.477 42.2351C115.927 42.2351 114.574 42.0751 113.417 41.7552C112.285 41.4353 111.399 40.9554 110.759 40.3156C110.119 39.7004 109.799 38.9006 109.799 37.9162C109.799 37.2517 109.935 36.6488 110.205 36.1074C110.501 35.5906 110.894 35.1354 111.387 34.7416C111.903 34.3479 112.457 34.0033 113.048 33.708C112.186 33.4619 111.51 33.0805 111.017 32.5637C110.55 32.0469 110.316 31.3825 110.316 30.5703C110.316 29.709 110.525 28.9708 110.944 28.3555C111.362 27.7403 111.94 27.1128 112.679 26.4729C111.94 25.8577 111.387 25.0948 111.017 24.1843C110.648 23.2737 110.464 22.1294 110.464 20.7513C110.464 19.1517 110.747 17.7982 111.313 16.6908C111.879 15.5834 112.703 14.7466 113.786 14.1806C114.893 13.59 116.222 13.2947 117.773 13.2947C118.88 13.2947 119.84 13.4547 120.652 13.7746C121.464 14.0699 122.141 14.5129 122.682 15.1035C122.928 14.7343 123.285 14.3529 123.753 13.9591C124.22 13.5408 124.749 13.184 125.34 12.8887L126.078 12.5564L127.407 15.3619C127.161 15.4357 126.817 15.5587 126.374 15.731C125.955 15.9033 125.525 16.0878 125.082 16.2847C124.663 16.4816 124.306 16.6662 124.011 16.8384C124.257 17.3552 124.454 17.9704 124.602 18.6841C124.749 19.3978 124.823 20.1114 124.823 20.8251C124.823 22.3263 124.565 23.6306 124.048 24.738C123.531 25.8454 122.756 26.6944 121.722 27.285C120.689 27.8756 119.372 28.171 117.773 28.171C117.157 28.171 116.567 28.1217 116.001 28.0233C115.459 27.9249 114.943 27.8018 114.45 27.6542C114.303 27.851 114.167 28.0725 114.044 28.3186C113.946 28.5401 113.897 28.7739 113.897 29.02C113.897 29.3153 114.032 29.5491 114.303 29.7213C114.598 29.8936 115.115 30.0166 115.853 30.0905L120.984 30.6442C122.781 30.841 124.097 31.4194 124.934 32.3791C125.795 33.3143 126.226 34.5693 126.226 36.1443C126.226 37.4486 125.931 38.556 125.34 39.4666C124.749 40.3771 123.802 41.0662 122.498 41.5337C121.218 42.0013 119.545 42.2351 117.477 42.2351ZM118.142 38.1377C119.495 38.1377 120.529 38.0146 121.243 37.7685C121.956 37.5224 122.313 37.0426 122.313 36.3289C122.313 35.9844 122.215 35.6891 122.018 35.443C121.846 35.2215 121.526 35.0369 121.058 34.8893C120.615 34.7416 119.988 34.6309 119.175 34.557L115.336 34.1879C115.09 34.3848 114.869 34.5939 114.672 34.8154C114.475 35.0369 114.315 35.2707 114.192 35.5168C114.069 35.7629 114.008 36.0336 114.008 36.3289C114.008 36.9195 114.315 37.3625 114.93 37.6578C115.57 37.9777 116.641 38.1377 118.142 38.1377ZM117.773 24.7749C118.166 24.7749 118.486 24.7011 118.732 24.5534C118.979 24.4057 119.163 24.172 119.286 23.852C119.409 23.5321 119.495 23.1138 119.545 22.597C119.594 22.0802 119.618 21.465 119.618 20.7513C119.618 20.0376 119.594 19.4347 119.545 18.9425C119.495 18.4257 119.409 18.0074 119.286 17.6874C119.163 17.3429 118.979 17.0968 118.732 16.9492C118.486 16.8015 118.166 16.7277 117.773 16.7277C117.404 16.7277 117.084 16.8015 116.813 16.9492C116.567 17.0968 116.382 17.3306 116.259 17.6505C116.136 17.9704 116.05 18.3888 116.001 18.9056C115.952 19.4224 115.927 20.0376 115.927 20.7513C115.927 21.4403 115.952 22.0433 116.001 22.5601C116.05 23.0522 116.136 23.4706 116.259 23.8151C116.382 24.135 116.567 24.3811 116.813 24.5534C117.059 24.7011 117.379 24.7749 117.773 24.7749ZM134.028 35.3691C132.502 35.3691 131.198 35.0984 130.115 34.557C129.032 33.991 128.208 33.1789 127.642 32.1207C127.1 31.0625 126.83 29.7459 126.83 28.171V20.4929C126.83 18.9179 127.1 17.6013 127.642 16.5431C128.208 15.4849 129.032 14.6851 130.115 14.1437C131.198 13.5777 132.502 13.2947 134.028 13.2947C135.554 13.2947 136.858 13.5777 137.941 14.1437C139.023 14.6851 139.848 15.4849 140.414 16.5431C140.98 17.6013 141.263 18.9179 141.263 20.4929V28.171C141.263 29.7459 140.98 31.0625 140.414 32.1207C139.848 33.1789 139.023 33.991 137.941 34.557C136.858 35.0984 135.554 35.3691 134.028 35.3691ZM134.065 31.6039C134.532 31.6039 134.889 31.4809 135.135 31.2348C135.381 30.9641 135.541 30.6073 135.615 30.1643C135.689 29.6967 135.726 29.1676 135.726 28.577V20.1238C135.726 19.5085 135.689 18.9794 135.615 18.5365C135.541 18.0935 135.381 17.7367 135.135 17.466C134.889 17.1953 134.532 17.0599 134.065 17.0599C133.597 17.0599 133.24 17.1953 132.994 17.466C132.748 17.7367 132.576 18.0935 132.477 18.5365C132.404 18.9794 132.367 19.5085 132.367 20.1238V28.577C132.367 29.1676 132.404 29.6967 132.477 30.1643C132.576 30.6073 132.748 30.9641 132.994 31.2348C133.24 31.4809 133.597 31.6039 134.065 31.6039Z" fill="#001A3D"/>
<defs>
<clipPath id="clip0_1794_2140">
<rect width="40.031" height="30.6314" fill="white"/>
</clipPath>
</defs>
</svg>
